HIERARCHY
ROOT Hips
{
	OFFSET -0.001795 -0.223333 0.028219
	CHANNELS 6 Xposition Yposition Zposition Zrotation Yrotation Xrotation 
	JOINT LeftUpLeg
	{
		OFFSET 0.069520 -0.091406 -0.006815
		CHANNELS 3 Zrotation Yrotation Xrotation
		JOINT LeftLeg
		{
			OFFSET 0.034277 -0.375199 -0.004496
			CHANNELS 3 Zrotation Yrotation Xrotation
			JOINT LeftFoot
			{
				OFFSET -0.013596 -0.397961 -0.043693
				CHANNELS 3 Zrotation Yrotation Xrotation
				JOINT LeftToe
				{
					OFFSET 0.026358 -0.055791 0.119288
					CHANNELS 3 Zrotation Yrotation Xrotation
					End Site
					{
						OFFSET 0.000000 0.000000 0.000000
					}
				}
			}
		}
	}
	JOINT RightUpLeg
	{
		OFFSET -0.067670 -0.090522 -0.004320
		CHANNELS 3 Zrotation Yrotation Xrotation
		JOINT RightLeg
		{
			OFFSET -0.038290 -0.382569 -0.008850
			CHANNELS 3 Zrotation Yrotation Xrotation
			JOINT RightFoot
			{
				OFFSET 0.015774 -0.398415 -0.042312
				CHANNELS 3 Zrotation Yrotation Xrotation
				JOINT RightToe
				{
					OFFSET -0.025372 -0.048144 0.123348
					CHANNELS 3 Zrotation Yrotation Xrotation
					End Site
					{
						OFFSET 0.000000 0.000000 0.000000
					}
				}
			}
		}
	}
	JOINT Spine
	{
		OFFSET -0.002533 0.108963 -0.026696
		CHANNELS 3 Zrotation Yrotation Xrotation
		JOINT Spine1
		{
			OFFSET 0.005487 0.135180 0.001092
			CHANNELS 3 Zrotation Yrotation Xrotation
			JOINT Spine2
			{
				OFFSET 0.001457 0.052922 0.025425
				CHANNELS 3 Zrotation Yrotation Xrotation
				JOINT Neck
				{
					OFFSET -0.002778 0.213870 -0.042857
					CHANNELS 3 Zrotation Yrotation Xrotation
					JOINT Head
					{
						OFFSET 0.005152 0.064970 0.051349
						CHANNELS 3 Zrotation Yrotation Xrotation
						End Site
						{
							OFFSET 0.000000 0.000000 0.000000
						}
					}
				}
				JOINT LeftShoulder
				{
					OFFSET 0.078845 0.121749 -0.034090
					CHANNELS 3 Zrotation Yrotation Xrotation
					JOINT LeftArm
					{
						OFFSET 0.090977 0.030469 -0.008868
						CHANNELS 3 Zrotation Yrotation Xrotation
						JOINT LeftForeArm
						{
							OFFSET 0.259612 -0.012772 -0.027456
							CHANNELS 3 Zrotation Yrotation Xrotation
							JOINT LeftHand
							{
								OFFSET 0.249234 0.008986 -0.001171
								CHANNELS 3 Zrotation Yrotation Xrotation
								End Site
								{
									OFFSET 0.000000 0.000000 0.000000
								}
							}
						}
					}
				}
				JOINT RightShoulder
				{
					OFFSET -0.081759 0.118833 -0.038615
					CHANNELS 3 Zrotation Yrotation Xrotation
					JOINT RightArm
					{
						OFFSET -0.096012 0.032551 -0.009143
						CHANNELS 3 Zrotation Yrotation Xrotation
						JOINT RightForeArm
						{
							OFFSET -0.253742 -0.013329 -0.021401
							CHANNELS 3 Zrotation Yrotation Xrotation
							JOINT RightHand
							{
								OFFSET -0.255298 0.007772 -0.005559
								CHANNELS 3 Zrotation Yrotation Xrotation
								End Site
								{
									OFFSET 0.000000 0.000000 0.000000
								}
							}
						}
					}
				}
			}
		}
	}
}
MOTION
Frames: 8
Frame Time: 0.050000
-0.001926 0.885705 -0.078834 -2.028902 7.479357 9.125689 10.982042 -1.114287 -35.380390 -6.877688 0.762329 39.605671 3.636843 6.259879 -4.348362 0.000000 0.000000 0.000000 -3.492159 1.848494 -39.164927 -0.355402 0.632186 42.380781 -0.045301 2.124915 -4.487145 0.000000 0.000000 0.000000 5.369340 -1.762298 15.147485 -2.473780 1.204301 -4.130742 -4.831393 10.148293 10.566759 10.574806 -6.998875 -5.228084 0.000000 0.000000 0.000000 4.705296 3.756713 -0.078934 -85.827149 -6.605256 -12.668864 -110.057959 -81.767506 103.177867 0.000000 0.000000 0.000000 -3.897524 -13.804178 -5.085577 81.586421 -12.388638 -11.189163 89.750579 78.060108 87.424131 0.000000 0.000000 0.000000 
-0.008021 0.882611 -0.078477 -1.924261 10.516022 9.288759 11.412490 -1.520490 -37.421712 -7.253495 0.431597 40.862813 3.333979 5.718202 -3.878786 0.000000 0.000000 0.000000 -3.680702 1.321927 -39.976970 0.036578 -0.155619 44.001354 -0.867025 -0.184887 -4.843799 0.000000 0.000000 0.000000 5.256964 -1.904943 15.865286 -2.593986 1.270176 -4.027396 -5.193948 10.988442 10.883831 10.441626 -7.118479 -4.227555 0.000000 0.000000 0.000000 5.453580 4.652635 -0.009435 -85.915320 -5.574943 -14.827563 -124.265208 -76.645835 112.893414 0.000000 0.000000 0.000000 -3.953730 -14.738555 -5.601828 82.336491 -13.692823 -11.006232 107.325571 78.069413 106.586874 0.000000 0.000000 0.000000 
-0.013255 0.878715 -0.078534 -1.757936 13.461911 9.460189 11.636939 -2.025204 -39.250672 -7.567819 0.034498 42.608882 2.858131 4.584959 -3.823952 0.000000 0.000000 0.000000 -3.946671 0.716901 -41.083496 0.269163 -0.934994 45.908225 -1.082625 -0.705005 -5.299058 0.000000 0.000000 0.000000 4.758533 -2.070410 17.265430 -2.805538 1.380191 -4.321151 -5.151990 11.346109 11.236413 10.073202 -6.722346 -4.272103 0.000000 0.000000 0.000000 5.724800 6.133232 -0.249714 -85.870934 -4.861953 -16.329815 -131.966094 -70.898273 116.120035 0.000000 0.000000 0.000000 -3.510298 -15.396180 -5.993435 81.707236 -14.011947 -10.354632 121.548576 77.741683 122.818224 0.000000 0.000000 0.000000 
-0.017519 0.874956 -0.078827 -1.379539 16.940725 9.448678 11.552712 -2.745018 -40.854531 -7.879094 -0.484436 43.866604 2.718332 4.220030 -3.795788 0.000000 0.000000 0.000000 -4.290924 -0.087036 -42.049037 0.465074 -1.923957 48.097171 -1.804740 -2.749307 -5.573389 0.000000 0.000000 0.000000 4.867453 -2.323479 18.128961 -3.117717 1.523690 -4.279069 -5.117575 11.481696 11.899086 9.304589 -6.116293 -3.967138 0.000000 0.000000 0.000000 5.586026 7.002684 -0.457245 -85.104775 -4.922864 -16.913145 -137.251478 -65.799209 117.440271 0.000000 0.000000 0.000000 -4.009534 -16.016617 -6.369555 82.491836 -14.346284 -9.607699 138.507935 77.192824 143.068531 0.000000 0.000000 0.000000 
-0.021391 0.871597 -0.079003 -0.851992 20.024775 9.603110 11.353002 -3.417184 -41.761849 -8.430723 -0.823911 44.568022 2.437628 3.418949 -3.902366 0.000000 0.000000 0.000000 -4.825867 -0.960309 -42.781790 0.391544 -2.761702 50.053640 -2.024268 -3.170368 -6.421883 0.000000 0.000000 0.000000 4.452897 -2.496475 19.159440 -3.033407 1.518795 -4.639352 -5.077225 11.561084 12.568206 9.155090 -5.787292 -4.335435 0.000000 0.000000 0.000000 5.626765 8.465562 -0.787429 -84.368432 -5.514836 -16.970809 -139.829528 -61.609035 116.483716 0.000000 0.000000 0.000000 -4.534766 -16.358060 -6.632395 82.352180 -14.076933 -8.467909 148.468249 76.638985 155.813536 0.000000 0.000000 0.000000 
-0.025185 0.869913 -0.078939 -0.461729 22.969484 9.695061 11.216569 -4.040657 -42.467138 -9.031043 -1.084963 44.832348 2.544886 3.330279 -4.377927 0.000000 0.000000 0.000000 -5.356506 -1.802272 -43.017236 0.397498 -3.629923 51.366450 -2.663952 -4.975261 -6.726657 0.000000 0.000000 0.000000 4.319870 -2.731794 20.076642 -3.424328 1.712668 -5.304495 -4.516551 11.503741 13.637435 8.602221 -5.167683 -4.602089 0.000000 0.000000 0.000000 5.982265 9.109888 -0.795611 -83.633484 -7.095844 -16.259613 -143.404950 -58.869322 118.658683 0.000000 0.000000 0.000000 -6.342951 -16.391011 -6.791893 83.110773 -14.049065 -7.379793 161.040420 74.262577 171.772756 0.000000 0.000000 0.000000 
-0.029331 0.868713 -0.078575 -0.129868 25.508464 10.031949 11.494299 -4.511748 -43.201254 -9.613453 -1.250115 44.932304 2.313894 2.700153 -4.369834 0.000000 0.000000 0.000000 -5.576546 -2.458694 -43.233744 0.175511 -4.144495 51.681543 -3.040534 -5.992146 -7.343716 0.000000 0.000000 0.000000 3.396860 -2.763168 20.907260 -2.793199 1.469221 -5.036997 -4.607366 11.589851 13.615184 8.130317 -4.737829 -4.547979 0.000000 0.000000 0.000000 6.683615 10.266270 -0.760884 -83.593075 -8.188165 -16.118786 -145.944564 -56.288058 119.867691 0.000000 0.000000 0.000000 -7.695226 -15.920588 -6.768814 83.426379 -13.585668 -6.032801 172.156467 72.541705 -172.861427 0.000000 0.000000 0.000000 
-0.033751 0.867612 -0.077964 0.113091 27.819654 10.225805 11.719159 -5.006260 -44.087866 -10.024749 -1.454543 45.124612 2.173505 2.483198 -4.114216 0.000000 0.000000 0.000000 -5.900241 -3.146602 -43.491822 0.514900 -5.004582 52.181326 -3.685679 -7.902960 -7.018400 0.000000 0.000000 0.000000 2.942278 -2.955356 21.992415 -2.957262 1.574832 -5.657750 -4.103646 11.611437 14.515632 8.017213 -4.578787 -4.581107 0.000000 0.000000 0.000000 6.744271 10.496838 -0.779312 -82.926964 -9.174525 -15.670840 -149.901402 -54.636794 124.504723 0.000000 0.000000 0.000000 -9.403759 -15.881771 -6.935838 84.556649 -14.018764 -5.346577 -179.708538 68.920000 -160.456039 0.000000 0.000000 0.000000 
